<?xml version="1.0" encoding="UTF-8" standalone="no"?>
<!-- Created with Inkscape (http://www.inkscape.org/) -->

<svg
   width="155.84724mm"
   height="156.10416mm"
   viewBox="0 0 155.84724 156.10416"
   version="1.1"
   id="svg1"
   xml:space="preserve"
   xmlns="http://www.w3.org/2000/svg"
   xmlns:svg="http://www.w3.org/2000/svg"><defs
     id="defs1"><linearGradient
       id="swatch31"><stop
         style="stop-color:#e88686;stop-opacity:1;"
         offset="0"
         id="stop32" /></linearGradient><linearGradient
       id="swatch10"><stop
         style="stop-color:#e88686;stop-opacity:1;"
         offset="0"
         id="stop10" /></linearGradient><linearGradient
       id="swatch7"><stop
         style="stop-color:#ffffff;stop-opacity:1;"
         offset="0"
         id="stop7" /></linearGradient></defs><g
     id="layer2"
     style="display:inline"
     transform="translate(-28.255863,-97.611537)"><g
       id="g52"
       transform="translate(-0.20079785,3.6834177)"
       style="fill:#1a1a1a;stroke:none"><path
         d="m 129.62568,169.29199 c -1.70279,-0.0889 -3.37769,-0.0487 -4.49585,0.46664 -1.29446,0.59661 -2.11529,3.06704 -2.4815,4.33824 h 30.95625 c -1.71266,12.37436 -3.38781,15.45397 -7.79177,22.75416 -8.64106,14.32377 -25.16174,21.82545 -41.42073,21.42712 -5.704047,-0.13975 -11.76492,-1.46708 -16.933336,-3.90674 -1.906836,-0.90008 -3.788254,-1.90917 -5.55625,-3.05976 -0.824579,-0.53662 -1.901934,-1.64226 -2.910416,-1.74873 -1.19618,-0.1263 -2.61038,1.64495 -3.439584,2.36936 v 0.26459 c 21.278016,18.41047 55.907746,11.42815 71.994576,-10.05417 7.28867,-9.73326 9.87162,-24.16406 9.49709,-32.27917 -7.57753,0 -15.16045,-0.26458 -22.75417,-0.26458 -1.23086,0 -2.96152,-0.21803 -4.66431,-0.30696 z"
         style="fill:#1a1a1a;stroke:none"
         id="path26" /><path
         d="m 129.62568,169.29199 c 1.70279,0.0889 3.43345,0.30696 4.66431,0.30696 7.59372,0 15.17664,0.26458 22.75417,0.26458 0.37453,8.11511 -2.20842,22.54591 -9.49709,32.27917 -16.08683,21.48232 -50.71656,28.46464 -71.994576,10.05417 v -0.26459 c 0.829204,-0.72441 2.243404,-2.49566 3.439584,-2.36936 1.008482,0.10647 2.085837,1.21211 2.910416,1.74873 1.767996,1.15059 3.649414,2.15968 5.55625,3.05976 5.168416,2.43966 11.229289,3.76699 16.933336,3.90674 16.25899,0.39833 32.77967,-7.10335 41.42073,-21.42712 4.40396,-7.30019 6.07911,-10.3798 7.79177,-22.75416 h -30.95625 c 0.36621,-1.2712 1.18704,-3.74163 2.4815,-4.33824 1.11816,-0.51536 2.79306,-0.55557 4.49585,-0.46664 z"
         style="fill:#1a1a1a;stroke:none;stroke-width:1.00013;stroke-linecap:butt;stroke-linejoin:miter;stroke-dasharray:none;stroke-opacity:1;paint-order:stroke fill markers"
         id="path25" /><path
         d="m 145.66708,139.43645 -2.33888,3.175 0.97617,2.11667 4.11189,6.34276 4.65915,0.27182 c -1.11458,-3.8692 -4.28034,-9.35995 -7.40833,-11.90625 z"
         style="fill:#1a1a1a;stroke:none"
         id="path24" /><path
         d="m 145.66708,139.43645 c 3.12799,2.5463 6.29375,8.03705 7.40833,11.90625 l -4.65915,-0.27182 -4.11189,-6.34276 -0.97617,-2.11667 z"
         style="fill:#1a1a1a;stroke:none;paint-order:stroke fill markers"
         id="path23" /><path
         d="m 108.83987,121.07116 c -14.294676,-0.60107 -28.75066,4.66286 -38.83329,15.19029 -11.496306,12.00347 -17.064006,29.88487 -13.391431,46.30208 1.826754,8.16598 5.802254,15.30469 10.735262,21.96042 h 0.529167 c 0.67659,-0.91287 2.173147,-2.22566 2.132169,-3.43958 -0.06571,-1.94641 -3.044985,-4.64944 -4.017842,-6.35 -2.363482,-4.13138 -4.041186,-8.56367 -4.992461,-13.22917 -3.000798,-14.71731 1.096982,-30.46231 11.644768,-41.275 10.761387,-11.03165 25.060481,-16.53903 40.477118,-14.43943 5.31454,0.72379 10.35523,2.44131 15.08125,4.99608 1.71155,0.92522 4.99484,4.08794 6.87916,4.06383 1.18836,-0.0152 2.40501,-1.78799 3.175,-2.55798 -3.43193,-4.21597 -10.30887,-6.95776 -15.34583,-8.64288 -4.56109,-1.52591 -9.30815,-2.3783 -14.07304,-2.57866 z"
         style="fill:#1a1a1a;stroke:none;paint-order:stroke fill markers"
         id="path22" /><path
         d="m 164.71708,113.77187 c -14.34072,10.80798 -28.87494,22.47621 -41.28534,35.45416 -4.85594,5.07801 -11.22205,10.76834 -14.27716,17.19792 l -9.789586,-7.67292 c -5.7177,20.14838 -20.185929,36.60836 -33.911108,51.85834 -5.616922,6.24093 -12.695539,12.45214 -17.153475,19.57916 4.90788,-3.2459 9.380593,-7.37773 14.022917,-11.00036 9.034804,-7.0503 18.081285,-14.22468 26.19375,-22.33714 4.942263,-4.94226 11.242445,-10.52492 14.287502,-16.93333 3.47245,2.44606 5.90578,4.68203 10.05416,6.08542 2.30717,-5.20487 3.96693,-10.56453 6.69624,-15.61042 6.439,-11.90433 15.2951,-22.2683 24.30497,-32.27917 5.22342,-5.80375 10.61347,-11.47388 15.63057,-17.4625 1.51829,-1.81227 4.80104,-4.53223 5.22656,-6.87916 z"
         style="fill:#1a1a1a;stroke:none;stroke-opacity:1;paint-order:normal"
         id="path21" /><path
         d="m 184.29624,93.928117 c -6.30997,4.17537 -12.93003,7.864833 -19.57916,11.458733 -3.50993,1.89714 -7.85856,4.51192 -11.90625,4.89841 -3.1215,0.29806 -6.997,-1.24241 -10.05417,-1.89446 -5.76386,-1.22933 -11.61926,-2.24283 -17.4625,-3.01119 -22.51012,-2.95998 -46.816473,0.58875 -64.293749,16.37472 -18.303058,16.53184 -24.275538,42.40161 -21.355802,66.10087 0.831454,6.74885 2.031025,13.44191 3.364135,20.10833 0.619068,3.09573 2.15079,6.90127 1.908928,10.05417 -0.277886,3.6225 -2.387287,7.1283 -3.943946,10.31875 -3.668359,7.51847 -8.389935,14.44372 -12.517065,21.69583 2.779905,-1.05214 5.385183,-3.1252 7.9375,-4.65656 4.764506,-2.85863 9.581783,-5.62341 14.552083,-8.10855 2.833145,-1.41658 6.057871,-3.24308 9.260417,-3.58944 3.790676,-0.40997 8.441519,1.56602 12.170833,2.26239 8.708901,1.6262 17.592827,3.37488 26.458334,3.76308 20.072612,0.87895 42.159342,-5.52731 56.345912,-20.36258 9.85298,-10.30352 15.81236,-24.15244 18.15135,-38.1 2.21196,-13.1901 0.18224,-26.36477 -2.02262,-39.42292 -0.83118,-4.92266 -3.40386,-10.91209 -3.09748,-15.875 0.17744,-2.87447 1.80639,-5.92884 3.05408,-8.46667 2.489,-5.06267 5.26047,-9.97933 8.16125,-14.81666 1.22927,-2.04992 5.0696,-6.391003 4.86792,-8.731253 z m -12.96458,13.229163 c -1.83059,6.35467 -7.5222,11.83864 -7.65845,18.78542 -0.10845,5.53 2.32966,11.74769 3.31298,17.19792 2.26839,12.57279 4.1083,25.65953 1.80196,38.36458 -2.42653,13.36724 -8.44735,26.7567 -18.35857,36.23758 -13.41407,12.83165 -33.13026,18.2594 -51.329169,17.4625 -8.58627,-0.37598 -17.24348,-1.95711 -25.664583,-3.64112 -4.081219,-0.81613 -9.065532,-2.79861 -13.229167,-2.389 -6.918804,0.68068 -12.108733,5.78075 -18.520833,7.62796 2.145072,-5.89457 7.126062,-11.2371 7.648112,-17.72709 0.539275,-6.70414 -2.510776,-14.28433 -3.613733,-20.90208 -2.384343,-14.30604 -3.581319,-28.13739 0.168465,-42.33333 3.088878,-11.69388 9.261079,-22.78811 18.286739,-30.91129 13.281417,-11.95339 32.922252,-17.36696 50.535419,-16.16078 8.52864,0.58405 17.014,2.03036 25.4,3.6804 4.09405,0.80556 9.05127,2.83393 13.22916,2.33267 6.63416,-0.79596 11.83458,-5.67596 17.99167,-7.62434 z"
         style="fill:#1a1a1a;stroke:none;stroke-opacity:1"
         id="path19" /><text
         xml:space="preserve"
         style="font-size:14.0872px;writing-mode:lr-tb;direction:ltr;opacity:1;fill:#1a1a1a;fill-opacity:1;stroke:none;stroke-width:0.554681;stroke-linecap:butt;stroke-linejoin:miter;stroke-miterlimit:1.8;stroke-dasharray:none;stroke-dashoffset:0;stroke-opacity:1;paint-order:normal"
         x="-43.961388"
         y="266.31235"
         id="text51"
         transform="matrix(0.75647716,-0.68730208,0.6577364,0.72432643,0,0)"><tspan
           id="tspan51"
           style="font-style:italic;font-variant:normal;font-weight:normal;font-stretch:normal;font-size:14.0872px;font-family:'Tiresias LPfont';-inkscape-font-specification:'Tiresias LPfont Italic';fill:#1a1a1a;stroke:none;stroke-width:0.554681"
           x="-43.961388"
           y="266.31235">33</tspan></text></g></g></svg>
